<?xml version="1.0"?>
<svg xmlns="http://www.w3.org/2000/svg" xmlns:xlink="http://www.w3.org/1999/xlink" version="1.1" id="Capa_1" x="0px" y="0px" viewBox="0 0 480 480" style="enable-background:new 0 0 480 480;" xml:space="preserve" width="512px" height="512px"><g><g>
	<g>
		<path d="M440,72H40C17.92,72.026,0.026,89.92,0,112v256c0.026,22.08,17.92,39.974,40,40c0,0,404.552-0.192,406.696-0.584    C465.945,404.194,480.037,387.517,480,368V112C479.974,89.92,462.08,72.026,440,72z M140.944,392L160,353.888L179.056,392H140.944    z M233.2,392h-32.592L232,310.296L263.4,392H233.2z M280.536,392l-17.808-46.4L304,238.28L363.144,392H280.536z M380.296,392    l-23.088-60L384,262.288L433.888,392H380.296z M464,368c-0.016,9.289-5.431,17.721-13.872,21.6l-58.656-152.472    c-1.578-4.127-6.203-6.192-10.33-4.614c-2.124,0.812-3.801,2.49-4.614,4.614l-27.896,72.584l-37.16-96.584    c-1.578-4.127-6.203-6.192-10.33-4.614c-2.124,0.812-3.801,2.49-4.614,4.614l-42.4,110.184l-14.68-38.184    c-1.579-4.127-6.203-6.192-10.33-4.614c-2.124,0.812-3.801,2.49-4.614,4.614l-35.2,91.616l-22.104-44.32    c-2.358-3.954-7.475-5.249-11.429-2.891c-1.189,0.709-2.182,1.702-2.891,2.891L123.056,392H40c-13.255,0-24-10.745-24-24V112    c0-13.255,10.745-24,24-24h400c13.255,0,24,10.745,24,24V368z" data-original="#000000" class="active-path" data-old_color="#000000" fill="#F5F5F5"/>
	</g>
</g><g>
	<g>
		<path d="M160,160c-22.091,0-40,17.909-40,40s17.909,40,40,40s40-17.909,40-40C199.974,177.92,182.08,160.026,160,160z M160,224    c-13.255,0-24-10.745-24-24s10.745-24,24-24s24,10.745,24,24S173.255,224,160,224z" data-original="#000000" class="active-path" data-old_color="#000000" fill="#F5F5F5"/>
	</g>
</g><g>
	<g>
		<path d="M160,128c-4.418,0-8,3.582-8,8v8c0,4.418,3.582,8,8,8s8-3.582,8-8v-8C168,131.582,164.418,128,160,128z" data-original="#000000" class="active-path" data-old_color="#000000" fill="#F5F5F5"/>
	</g>
</g><g>
	<g>
		<path d="M126.056,154.744l-5.656-5.656c-3.178-3.069-8.243-2.981-11.312,0.197c-2.994,3.1-2.994,8.015,0,11.115l5.656,5.656    c3.178,3.069,8.243,2.981,11.312-0.197C129.05,162.759,129.05,157.844,126.056,154.744z" data-original="#000000" class="active-path" data-old_color="#000000" fill="#F5F5F5"/>
	</g>
</g><g>
	<g>
		<path d="M104,192h-8c-4.418,0-8,3.582-8,8s3.582,8,8,8h8c4.418,0,8-3.582,8-8S108.418,192,104,192z" data-original="#000000" class="active-path" data-old_color="#000000" fill="#F5F5F5"/>
	</g>
</g><g>
	<g>
		<path d="M126.253,233.944c-3.069-3.178-8.134-3.266-11.312-0.197c-0.067,0.064-0.132,0.13-0.197,0.197v0l-5.656,5.656    c-3.178,3.07-3.266,8.134-0.196,11.312c3.07,3.178,8.134,3.266,11.312,0.196c0.067-0.064,0.132-0.13,0.196-0.196l5.656-5.656    C129.234,242.187,129.322,237.122,126.253,233.944z" data-original="#000000" class="active-path" data-old_color="#000000" fill="#F5F5F5"/>
	</g>
</g><g>
	<g>
		<path d="M160,248c-4.418,0-8,3.582-8,8v8c0,4.418,3.582,8,8,8s8-3.582,8-8v-8C168,251.582,164.418,248,160,248z" data-original="#000000" class="active-path" data-old_color="#000000" fill="#F5F5F5"/>
	</g>
</g><g>
	<g>
		<path d="M210.912,239.6l-5.656-5.656c-3.069-3.178-8.134-3.266-11.312-0.196c-3.178,3.07-3.266,8.134-0.196,11.312    c0.064,0.067,0.13,0.132,0.196,0.196l5.656,5.656c3.178,3.069,8.243,2.981,11.312-0.197    C213.906,247.615,213.906,242.7,210.912,239.6z" data-original="#000000" class="active-path" data-old_color="#000000" fill="#F5F5F5"/>
	</g>
</g><g>
	<g>
		<path d="M224,192h-8c-4.418,0-8,3.582-8,8s3.582,8,8,8h8c4.418,0,8-3.582,8-8S228.418,192,224,192z" data-original="#000000" class="active-path" data-old_color="#000000" fill="#F5F5F5"/>
	</g>
</g><g>
	<g>
		<path d="M210.715,149.088c-3.1-2.994-8.015-2.994-11.115,0l-5.656,5.656c-3.124,3.125-3.123,8.19,0.002,11.314    c1.5,1.499,3.534,2.342,5.654,2.342v0c2.122,0,4.156-0.844,5.656-2.344l5.656-5.656    C213.981,157.222,213.893,152.157,210.715,149.088z" data-original="#000000" class="active-path" data-old_color="#000000" fill="#F5F5F5"/>
	</g>
</g></g> </svg>
